<?xml version="1.0" standalone="no"?>
<!DOCTYPE svg PUBLIC "-//W3C//DTD SVG 20010904//EN"
 "http://www.w3.org/TR/2001/REC-SVG-20010904/DTD/svg10.dtd">
<svg version="1.0" xmlns="http://www.w3.org/2000/svg"
 width="421.000000pt" height="421.000000pt" viewBox="0 0 421.000000 421.000000"
 preserveAspectRatio="xMidYMid meet">
<metadata>
Created by potrace 1.11, written by Peter Selinger 2001-2013
</metadata>
<g transform="translate(0.000000,421.000000) scale(0.100000,-0.100000)"
fill="#000000" stroke="none">
<path d="M1975 4190 c-4 -6 -12 -9 -19 -7 -6 2 -22 0 -36 -6 -33 -13 -70 -15
-70 -4 0 5 -7 4 -15 -3 -11 -9 -15 -9 -15 -1 0 8 -5 9 -19 1 -14 -7 -22 -7
-26 0 -5 8 -11 7 -20 0 -8 -7 -19 -9 -25 -5 -5 3 -10 1 -10 -5 0 -6 -6 -10
-12 -9 -28 3 -39 -1 -32 -13 5 -9 2 -9 -9 1 -13 10 -17 10 -17 1 0 -7 -7 -10
-15 -6 -9 3 -18 -1 -21 -9 -4 -8 -10 -13 -14 -10 -5 3 -11 1 -15 -5 -3 -5 -17
-10 -30 -10 -14 0 -29 -9 -36 -21 -7 -15 -18 -20 -34 -16 -13 2 -23 1 -22 -3
1 -5 -1 -7 -5 -6 -4 0 -13 -8 -21 -18 -8 -11 -19 -16 -25 -12 -7 4 -12 3 -12
-3 0 -5 -9 -8 -20 -6 -11 2 -18 0 -15 -5 3 -5 -4 -11 -14 -15 -12 -4 -18 -12
-14 -21 4 -10 0 -12 -13 -7 -12 4 -15 3 -10 -5 4 -7 2 -12 -3 -12 -6 0 -13 0
-16 0 -3 0 -14 -9 -25 -20 -11 -11 -27 -20 -36 -20 -8 0 -13 -4 -10 -9 7 -11
-18 -33 -34 -29 -7 2 -24 -13 -37 -32 -13 -19 -27 -33 -30 -32 -2 2 -7 1 -11
-2 -3 -3 1 -6 9 -6 8 -1 3 -7 -11 -15 -14 -8 -22 -14 -17 -15 4 0 -20 -27 -53
-60 -33 -33 -60 -64 -60 -70 0 -6 -4 -8 -10 -5 -5 3 -7 0 -5 -8 3 -7 -3 -21
-14 -31 -14 -12 -18 -26 -15 -49 4 -24 2 -28 -5 -17 -9 13 -11 12 -11 -3 0
-10 -7 -20 -15 -23 -8 -4 -15 -12 -15 -20 0 -8 -5 -14 -11 -14 -5 0 -8 -4 -4
-9 3 -6 -3 -14 -12 -20 -12 -7 -13 -10 -4 -11 11 0 11 -3 1 -15 -7 -8 -9 -15
-4 -15 5 0 0 -7 -10 -15 -11 -8 -16 -15 -11 -15 4 0 0 -9 -10 -20 -10 -11 -15
-20 -10 -20 4 0 2 -7 -5 -15 -7 -8 -9 -15 -5 -15 4 0 2 -7 -5 -15 -10 -12 -10
-15 1 -15 10 0 11 -2 2 -8 -6 -4 -14 -25 -16 -47 -6 -54 -10 -67 -25 -84 -7
-7 -11 -20 -8 -27 3 -8 1 -14 -5 -14 -6 0 -7 -4 -4 -10 3 -5 3 -16 -2 -22 -12
-20 -12 -38 0 -38 6 0 3 -6 -8 -13 -14 -11 -15 -16 -5 -22 9 -6 11 -4 5 5 -5
9 -4 11 4 6 7 -5 9 -12 3 -19 -13 -16 -11 -47 2 -47 6 0 3 -5 -6 -11 -10 -5
-15 -16 -11 -24 3 -9 6 -48 7 -88 0 -39 5 -78 10 -86 6 -10 6 -12 -2 -7 -7 4
-12 3 -12 -3 0 -5 4 -11 9 -13 13 -4 22 -58 10 -58 -6 0 -7 -4 -4 -10 3 -5 2
-10 -4 -10 -6 0 -9 -13 -8 -30 1 -16 7 -30 12 -30 6 0 3 -5 -5 -10 -13 -9 -13
-10 0 -10 13 0 13 -1 0 -10 -8 -5 -10 -10 -5 -10 6 0 11 -9 11 -19 0 -11 -4
-17 -8 -15 -4 3 -8 -9 -8 -25 0 -18 -5 -31 -12 -31 -10 0 -9 -3 1 -9 7 -5 11
-13 7 -19 -3 -6 -2 -13 4 -17 6 -4 8 -11 4 -16 -10 -17 -12 -93 -2 -106 6 -7
5 -14 -3 -19 -8 -5 -9 -3 -4 6 5 9 4 11 -4 6 -9 -6 -9 -11 0 -22 7 -9 8 -14 1
-14 -12 0 -11 -18 2 -39 6 -10 5 -12 -2 -7 -7 4 -12 3 -12 -3 0 -5 5 -13 10
-16 8 -5 8 -11 0 -20 -8 -10 -8 -15 1 -20 8 -6 7 -10 -2 -16 -12 -8 -11 -11 1
-19 8 -5 10 -10 4 -10 -12 0 -13 -49 0 -69 6 -9 5 -12 0 -8 -6 3 -10 -31 -10
-84 0 -59 4 -89 11 -89 7 0 10 -15 8 -40 -2 -25 1 -40 8 -40 6 0 9 -9 6 -20
-3 -11 0 -20 6 -20 8 0 7 -3 -1 -9 -11 -7 -11 -9 2 -14 9 -4 16 -13 16 -22 0
-8 7 -15 16 -15 8 0 12 -5 9 -10 -3 -6 1 -10 10 -10 11 0 15 -5 11 -15 -3 -8
-2 -14 2 -13 15 4 52 -14 52 -25 0 -7 4 -6 10 3 9 13 10 13 10 0 0 -12 2 -12
9 -2 7 11 11 11 24 -2 11 -12 17 -13 20 -3 4 9 6 9 6 -1 1 -7 6 -10 11 -7 6 3
10 0 10 -7 0 -10 3 -9 9 1 8 12 11 9 16 -12 4 -15 11 -25 15 -22 4 3 8 -5 8
-18 0 -12 3 -33 7 -47 4 -14 7 -34 6 -45 0 -10 5 -26 12 -34 8 -10 8 -13 1 -8
-15 9 -14 -55 1 -65 7 -5 7 -8 0 -8 -6 0 -12 -16 -13 -35 -2 -19 1 -35 6 -35
5 0 12 -18 16 -39 3 -22 12 -42 18 -44 10 -4 9 -6 -1 -6 -10 -1 -9 -6 5 -19
10 -9 20 -24 22 -32 2 -8 13 -25 24 -38 16 -16 18 -22 7 -22 -11 -1 -10 -4 3
-14 10 -7 15 -16 11 -19 -3 -4 -1 -7 6 -7 7 0 9 -4 6 -10 -3 -5 -1 -10 4 -10
6 0 11 -9 11 -20 0 -11 5 -20 10 -20 6 0 10 -9 10 -20 0 -11 7 -20 15 -20 8 0
15 -6 15 -14 0 -7 9 -25 21 -40 11 -14 17 -26 14 -26 -4 0 -2 -6 4 -13 6 -8 8
-17 4 -20 -3 -4 -1 -7 6 -7 7 0 9 -5 6 -10 -3 -6 -1 -10 6 -10 8 0 7 -5 -2
-17 -8 -9 -9 -14 -3 -10 7 4 17 -6 25 -26 7 -17 18 -35 25 -40 7 -4 11 -16 9
-27 -2 -11 0 -18 6 -15 5 4 9 -2 9 -11 0 -10 10 -29 23 -42 12 -14 16 -22 8
-17 -9 5 -8 0 3 -17 9 -14 13 -29 9 -33 -5 -5 0 -3 10 4 15 12 17 12 12 -1 -3
-8 1 -21 9 -28 9 -7 13 -17 9 -23 -4 -6 0 -8 9 -4 12 4 15 0 11 -16 -4 -18 -3
-19 6 -7 9 12 11 11 11 -7 0 -13 5 -23 11 -23 5 0 7 -4 4 -10 -3 -5 0 -10 7
-10 9 0 9 -3 -2 -10 -13 -8 -12 -10 3 -10 9 0 17 -7 17 -15 0 -8 5 -15 10 -15
6 0 10 -7 10 -16 0 -8 4 -13 8 -10 4 3 8 -6 8 -20 -1 -13 3 -23 8 -21 5 1 12
-8 17 -21 5 -13 17 -22 29 -22 12 0 18 -4 15 -10 -3 -5 1 -10 10 -10 9 0 14
-3 11 -8 -2 -4 3 -16 11 -27 15 -19 15 -19 9 5 -5 23 -4 23 6 -2 7 -16 20 -30
30 -34 10 -3 18 -9 18 -13 0 -5 13 -14 30 -21 17 -7 30 -20 31 -29 0 -11 2
-12 6 -3 3 9 10 7 24 -9 13 -15 19 -17 19 -8 0 10 3 10 8 2 7 -12 25 -16 55
-14 10 0 15 6 12 12 -4 6 2 5 13 -2 12 -7 18 -18 14 -24 -3 -5 2 -4 11 4 9 7
17 11 17 7 0 -4 14 0 30 9 17 9 30 13 30 9 0 -4 8 0 17 7 9 8 14 9 10 3 -9
-16 23 -28 37 -14 8 8 6 9 -6 5 -10 -4 -18 -3 -18 2 0 16 13 23 24 14 23 -17
48 -22 43 -8 -3 8 1 14 9 14 7 0 11 -4 8 -9 -3 -4 0 -8 5 -8 6 0 11 6 11 13 0
8 4 7 10 -3 7 -11 10 -12 10 -2 0 10 4 10 16 -2 8 -9 17 -16 20 -16 9 0 -2 26
-16 39 -10 8 -6 8 10 -2 14 -9 24 -21 22 -28 -2 -9 0 -10 11 -1 8 7 18 8 22 4
5 -4 5 -1 1 6 -4 7 -12 10 -17 7 -5 -4 -9 -2 -9 3 0 6 16 9 36 7 30 -3 35 -1
30 13 -5 13 -3 13 9 -2 14 -18 15 -18 15 -2 0 10 5 14 11 10 6 -3 15 0 20 7 7
12 9 11 9 -1 0 -8 6 -4 13 10 8 16 21 25 35 24 12 0 22 3 22 8 0 4 7 8 16 8 8
0 13 4 10 9 -4 5 5 8 18 7 16 -2 23 1 20 9 -3 7 4 15 16 18 11 3 19 11 18 19
-2 7 5 13 14 13 9 0 20 4 25 9 4 5 3 6 -4 2 -6 -3 -14 -2 -18 4 -3 5 -1 10 5
10 6 0 16 13 21 30 10 26 19 34 39 32 3 0 5 15 4 34 -1 19 2 31 7 28 17 -10
30 6 20 25 -8 13 -4 24 15 44 22 24 23 31 2 28 -4 0 -5 6 -1 15 4 11 8 12 13
4 5 -9 9 -9 14 -1 4 6 4 17 0 24 -6 9 -5 9 8 -1 13 -10 15 -9 13 13 -3 22 -1
24 17 14 15 -8 19 -8 14 0 -4 6 -2 11 5 11 7 0 9 3 5 7 -3 4 8 22 26 41 18 19
27 32 21 28 -7 -4 -13 -2 -13 3 0 6 5 11 11 11 5 0 7 6 4 13 -4 6 1 3 9 -7 18
-23 21 -14 6 15 -6 11 -7 19 -3 18 4 -1 17 -1 28 0 17 1 17 3 5 11 -13 8 -13
11 -1 22 10 10 12 10 7 0 -4 -6 -2 -12 5 -12 6 0 9 8 7 18 -4 15 0 18 18 16
16 -1 21 2 17 12 -3 8 -10 11 -16 7 -6 -3 -7 -1 -3 6 6 9 12 9 24 -1 10 -7 14
-8 10 -4 -4 5 -3 15 4 23 9 11 7 12 -8 7 -18 -5 -18 -5 -1 6 9 6 22 8 27 5 6
-4 7 1 3 11 -4 11 -3 15 4 11 7 -5 10 2 9 17 -2 14 0 25 3 24 19 -2 24 4 11
12 -10 6 -11 10 -2 10 6 0 12 6 12 14 0 8 6 17 13 19 9 4 8 6 -2 6 -11 1 -11
4 -1 16 7 8 9 22 6 31 -5 13 -4 14 7 6 11 -9 13 -5 12 23 -1 19 4 47 12 62 7
14 11 28 8 31 -3 3 1 15 8 26 7 12 12 31 11 43 -1 13 3 23 7 23 5 0 9 5 9 11
0 6 -6 7 -12 2 -7 -4 -5 5 5 20 9 15 14 27 9 27 -9 0 -7 53 3 69 3 6 1 11 -5
11 -6 0 -8 5 -5 10 4 6 11 7 17 4 7 -4 8 -2 4 5 -13 20 -14 61 -2 61 6 0 6 4
-2 9 -11 6 -10 11 3 25 9 9 14 23 11 31 -3 8 -1 15 5 15 6 0 7 5 4 10 -4 6 -1
18 7 27 9 12 9 15 1 9 -9 -5 -11 -2 -7 8 3 9 11 14 17 13 7 -1 11 3 10 10 -2
8 4 10 14 6 10 -4 14 -2 9 5 -3 6 -1 14 5 18 7 4 9 3 5 -4 -3 -6 -2 -13 4 -17
5 -3 10 -1 10 5 0 7 5 8 13 3 6 -4 15 -8 20 -9 4 -1 10 -3 15 -4 4 -1 15 -1
26 0 10 1 23 -4 28 -12 6 -9 8 -8 6 7 -2 12 3 20 12 20 8 0 26 6 39 14 16 9
21 9 16 1 -6 -9 -2 -9 14 0 12 6 18 16 15 22 -4 7 -3 8 4 4 12 -7 35 28 24 38
-3 4 2 4 12 0 14 -5 17 -4 12 4 -4 7 -2 12 4 12 6 0 8 5 5 10 -3 6 -1 10 5 10
7 0 9 7 6 17 -4 10 -4 14 0 10 4 -4 13 1 20 11 9 13 10 20 1 31 -9 11 -9 13
-1 8 24 -14 31 22 30 145 -1 69 2 124 6 122 4 -3 3 7 -2 22 -7 19 -7 30 1 40
7 8 7 14 2 14 -13 0 -11 43 2 52 6 5 6 8 -1 8 -13 0 -14 31 -1 48 6 8 6 12 0
12 -13 0 -11 43 2 52 6 5 6 8 -1 8 -13 0 -14 31 -1 48 6 8 6 12 0 12 -13 0
-11 43 2 52 6 5 6 8 -1 8 -13 0 -14 31 -1 48 6 7 6 12 0 12 -13 0 -13 32 0 48
6 8 6 12 -2 12 -7 0 -9 5 -6 10 3 6 2 10 -4 10 -6 0 -7 7 -4 17 5 12 3 14 -8
8 -11 -7 -11 -5 1 10 12 15 12 17 1 10 -11 -6 -13 -4 -7 11 5 10 9 25 9 32 0
6 3 12 7 12 4 0 7 90 7 200 0 109 -3 197 -7 195 -4 -2 -5 7 -2 22 3 18 1 24
-7 19 -10 -7 -16 19 -12 53 2 7 -2 10 -9 6 -9 -6 -9 -2 0 15 10 18 9 24 -7 36
-10 7 -13 14 -8 14 6 0 4 4 -3 9 -7 4 -14 20 -16 35 -2 15 -10 36 -19 47 -9
10 -13 19 -9 19 5 0 9 7 9 15 0 8 -4 15 -9 15 -4 0 -8 5 -8 11 0 5 5 7 11 4 6
-4 5 2 -3 14 -7 12 -16 21 -20 21 -3 0 -5 11 -3 25 1 17 -3 25 -12 25 -10 0
-13 6 -9 16 3 8 2 12 -4 9 -9 -6 -14 8 -11 28 0 4 -6 7 -14 7 -8 0 -15 7 -15
16 0 9 -5 12 -12 8 -8 -5 -7 0 2 11 9 11 10 16 3 11 -9 -5 -13 0 -13 13 0 12
-6 21 -14 21 -9 0 -13 9 -12 24 2 19 -1 23 -13 19 -9 -4 -13 -2 -9 2 5 5 -1
14 -12 22 -11 8 -20 19 -20 25 0 7 7 3 16 -8 15 -19 15 -19 5 2 -5 11 -21 29
-35 39 -14 10 -23 22 -20 27 3 4 -3 8 -13 8 -15 0 -16 2 -3 10 13 8 12 10 -2
10 -10 0 -18 4 -18 8 0 17 -38 52 -55 52 -10 0 -16 3 -12 6 8 8 -39 51 -74 66
-16 7 -29 16 -29 20 0 5 -7 8 -15 8 -9 0 -18 7 -21 15 -4 8 -10 12 -15 9 -5
-3 -9 3 -9 13 0 15 -2 16 -10 3 -8 -13 -10 -12 -10 3 0 10 -4 15 -10 12 -5 -3
-10 2 -11 12 0 10 -3 13 -5 7 -5 -13 -54 4 -54 19 0 5 -4 6 -9 3 -5 -3 -11 1
-15 9 -3 8 -12 15 -20 15 -8 0 -17 6 -19 13 -4 9 -6 9 -6 -1 -1 -10 -6 -10
-21 -2 -11 6 -20 7 -20 3 0 -4 -7 2 -15 13 -8 10 -15 15 -15 10 0 -5 -8 -3
-17 5 -43 34 -59 38 -78 21 -10 -9 -15 -12 -11 -5 3 6 2 14 -3 17 -5 3 -12 -2
-15 -11 -6 -15 -8 -15 -16 -3 -8 12 -10 11 -10 -5 0 -17 -2 -17 -10 -5 -6 10
-10 11 -10 3 0 -7 -10 -13 -22 -13 -12 0 -18 3 -15 7 8 7 -34 38 -70 53 -13 5
-23 15 -23 21 0 6 -7 8 -17 5 -10 -4 -14 -4 -11 0 15 15 -20 30 -69 29 -53 0
-86 -16 -64 -29 16 -10 14 -23 -4 -23 -8 0 -12 4 -9 9 3 4 1 8 -5 8 -6 0 -7 7
-4 17 4 11 3 14 -5 9 -7 -4 -12 -2 -12 4 0 14 -158 12 -167 -2 -3 -6 -9 -5
-13 2 -6 9 -9 9 -15 0z m300 -28 c2 -7 0 -10 -5 -7 -6 3 -10 2 -10 -3 0 -15
-27 -10 -37 7 -8 13 -5 16 18 16 16 1 31 -5 34 -13z m-152 -1 c5 -1 6 -5 2
-11 -3 -5 -12 -7 -20 -3 -8 3 -15 0 -15 -7 0 -6 -4 -8 -10 -5 -5 3 -10 1 -10
-6 0 -8 -5 -7 -17 2 -15 12 -16 12 -8 -1 7 -13 6 -13 -6 -2 -12 11 -11 15 6
28 10 8 30 12 45 10 14 -2 29 -5 33 -5z m193 -40 c-10 -16 -23 -14 -30 5 -4
10 -2 13 6 8 8 -5 9 -1 4 12 -7 18 -6 18 10 2 9 -9 13 -21 10 -27z m308 -53
c-3 -4 1 -8 10 -8 8 0 13 -7 11 -17 -1 -10 -9 -16 -16 -14 -8 3 -24 5 -36 5
-22 1 -34 26 -12 26 5 0 8 4 5 8 -2 4 6 8 19 8 13 0 21 -4 19 -8z m-1434 -202
c0 -2 -8 -10 -17 -17 -16 -13 -17 -12 -4 4 13 16 21 21 21 13z m-230 -286 c0
-5 -5 -10 -11 -10 -5 0 -7 5 -4 10 3 6 8 10 11 10 2 0 4 -4 4 -10z m1815
-2981 c-4 -5 -12 -9 -18 -8 -9 0 -8 2 1 6 6 2 9 10 6 15 -4 7 -2 8 5 4 6 -4 9
-12 6 -17z m-37 -38 c-7 -11 -16 -18 -20 -15 -4 3 -2 11 5 19 18 21 29 18 15
-4z m-773 -530 c-9 -8 -36 -10 -30 -2 2 4 11 8 20 8 8 0 13 -3 10 -6z"/>
<path d="M2695 469 c-4 -6 -5 -12 -2 -15 2 -3 7 2 10 11 7 17 1 20 -8 4z"/>
<path d="M2656 421 c-12 -13 -14 -21 -6 -26 6 -4 14 -4 17 -1 4 3 1 6 -7 6
-10 0 -10 3 0 15 7 8 17 12 23 8 6 -3 7 -1 3 5 -9 15 -10 15 -30 -7z"/>
<path d="M2585 279 c-4 -6 -5 -12 -2 -15 2 -3 7 2 10 11 7 17 1 20 -8 4z"/>
<path d="M2385 111 c-3 -6 3 -9 14 -8 11 0 17 5 15 9 -7 11 -22 10 -29 -1z"/>
<path d="M1994 18 c-4 -5 -3 -12 0 -15 3 -4 6 -1 6 6 0 7 4 10 9 6 5 -3 12 -2
15 3 3 5 -2 9 -10 9 -8 0 -17 -4 -20 -9z"/>
</g>
</svg>
